/* XPM */
static char *abaf72dbcb9d49bee6b71a1971dc3ab7[] = {
/* columns rows colors chars-per-pixel */
"32 32 73 1 ",
"  c #8C9A9C",
". c #929E9E",
"X c #939FA1",
"o c #95A2A3",
"O c #99A5A5",
"+ c #9BA8A7",
"@ c #96A6A8",
"# c #9BA6A8",
"$ c #9DAAAB",
"% c #A2ADAD",
"& c #AAADAF",
"* c #A8B1AF",
"= c #A5AEB0",
"- c #A6B2B3",
"; c #ABB4B4",
": c #AEB8B7",
"> c #ACB6B8",
", c #AEBABB",
"< c #B1B6B5",
"1 c #B1B9B6",
"2 c #B4BCBB",
"3 c #B9BEBD",
"4 c #B7C0BE",
"5 c #BAC1BF",
"6 c #B5BFC1",
"7 c #B8BFC2",
"8 c #B6C2C3",
"9 c #BCC3C3",
"0 c #BFC8C6",
"q c #BDC6C8",
"w c #BEC9CA",
"e c #C1C6C5",
"r c #C1C8C7",
"t c #C4CCCC",
"y c #C9CECE",
"u c #C5D0CF",
"i c #C9D0CE",
"p c #CBCFD0",
"a c #C7D2D3",
"s c #CCD4D4",
"d c #CED8D6",
"f c #CCD6D8",
"g c #CED9D9",
"h c #D1D5D5",
"j c #D1D8D6",
"k c #D0D6D9",
"l c #D4DBDB",
"z c #D9DEDE",
"x c #D7E0DE",
"c c #D8E0DE",
"v c #D7DFE1",
"b c #DADFE0",
"n c #D7E0E0",
"m c #DCE3E3",
"M c #DEE8E7",
"N c #DCE6E8",
"B c #DFE8E8",
"V c #E1E6E6",
"C c #E1E8E7",
"Z c #E4EBEB",
"A c #E9EDED",
"S c #EBF1EF",
"D c #E6EFF0",
"F c #EDEFF0",
"G c #E7F0F0",
"H c #ECF3F3",
"J c #EFF6F8",
"K c #F2F5F5",
"L c #F5F9F7",
"P c #FAF8F7",
"I c #F7F7F8",
"U c #F5F9F9",
"Y c #FDFEFD",
/* pixels */
"YYYYYYYYIYJDfww88awgGUYYYYYYYYYP",
"YYYYYIYYFvr67uww88wu,rnUYYYYYYYY",
"YYYIYYKb7>t7,>@,-$%,9w29mUYYIYYY",
"YYYYYKh=f7>X@#$gw-XX=38r*hKYYYYY",
"IIYIAy<7qa6=7$$Ng--,,wxr3<pKYYIY",
"YYYFt&2hNNkZDfq6-,nGNgCMh3&pKYYY",
"YYFp<7hVDNDv,->#---,nmnZVh3<hKYY",
"YYVe<ebbfvv>X@ #$@@ouxlgzzt<5AYY",
"YK3<yZkbJv:O@###+++%+4CKzzZy<5KY",
"YV29zClbk6O#@@##++..++4jzhVl53VY",
"Ie<yVmmC1#X=>7f74w5%.oO1AAZVy1rP",
"H26kmzmdoo#%$aJa;wcl;O+.pczCj55L",
"h*emZmn,O$#O 7H6o@5Gd+%O1lxSVe*m",
"i2aCmmd.$$O=X7D,@o+ZC+++%dmZZi1l",
"04umzBsoOOX=o7H7o+,ZM%++orxxMr4i",
"99tZnZto$&O$X7J,@@aGr.%+o0mcSi4i",
"w5uBnmw.#=##7kZf8dg8$$%@@wMZZu4y",
"01uMmmuo##X&7kDp8ww,%o@@oumxmr2s",
"u;uMNndo###&>kJt,,,,-$+$odxmmu2l",
"c*wMBmn>####XqD6@@$@+%%@:xMCVe1c",
"L45xCnmw#XOO.eF7@@@@@@+.rllVl55P",
"Lr1umCZZ=Xo=;yDp-@@%$o+;CZcbt<yY",
"Ym25zVgNf-O#&:e2-@@$oo:dVcZl55ZY",
"YK51smavKp&XO#OX@@$@@,dJhjCp;eLY",
"YYCe&tVZZZx0$Ooo.o@=rcCmZVy<eAYY",
"YYKh15izdxxgjsu9wttsjlzzVs33hPYP",
"YYYKi*1ilddgcCAZGZClshlzy1<hKYYY",
"YPYYSi440rsmGGZZZSSCzht513hKYYYY",
"YYYYPLj<t00dmZSHSGZClree3lPYYYYY",
"PYYPYYPc0445ruutwtyt55eymPYYPYYP",
"PPYYYUYPHmi9249089325sCFYYYYYYYY",
"YYYYYYYYYUYHmjiypijZLPYYYYPYYYYY"
};
