/* XPM */
static char *_821db3c7f8f45b8d757be3c53660b00[] = {
/* columns rows colors chars-per-pixel */
"64 64 99 2 ",
"   c #859394",
".  c #8C9595",
"X  c #8C9896",
"o  c #8C9698",
"O  c #8E9B9B",
"+  c #919795",
"@  c #929996",
"#  c #909798",
"$  c #939D9C",
"%  c #999E9C",
"&  c #8FA19E",
"*  c #92A19E",
"=  c #98A19E",
"-  c #949FA1",
";  c #989FA1",
":  c #8FA1A2",
">  c #95A4A4",
",  c #9AA5A5",
"<  c #96A8A6",
"1  c #9AA8A7",
"2  c #96A6A8",
"3  c #9AA7A9",
"4  c #96A8A8",
"5  c #9CA9AA",
"6  c #9EAFB0",
"7  c #A0A6A5",
"8  c #A1A9A6",
"9  c #A1A7A9",
"0  c #A2ACAC",
"q  c #A9ADAD",
"w  c #A4B0AF",
"e  c #AAB1AF",
"r  c #A3AEB0",
"t  c #A8ADB0",
"y  c #A5B2B2",
"u  c #ABB4B4",
"i  c #ADB8B7",
"p  c #AEB7BA",
"a  c #A7B8B8",
"s  c #AEB9BA",
"d  c #B1B6B5",
"f  c #B2B9B7",
"g  c #B2B6B8",
"h  c #B4BCBC",
"j  c #B9BEBD",
"k  c #B5C0BF",
"l  c #BAC1BF",
"z  c #B4BFC1",
"x  c #BABFC1",
"c  c #B6C1C2",
"v  c #BCC4C4",
"b  c #BDC8C7",
"n  c #BCC6C8",
"m  c #BEC9C9",
"M  c #C2C6C6",
"N  c #C3C8C6",
"B  c #C2C6C8",
"V  c #C3CBCB",
"C  c #C9CECE",
"Z  c #C6D0CE",
"A  c #CAD1CF",
"S  c #C5CED1",
"D  c #CACFD1",
"F  c #C6D1D1",
"G  c #CCD3D3",
"H  c #CFD8D7",
"J  c #CCD6D8",
"K  c #CED9D9",
"L  c #D1D5D6",
"P  c #D2D9D7",
"I  c #D4D7D9",
"U  c #D4DBDB",
"Y  c #D9DDDE",
"T  c #DAE1DF",
"R  c #D6DEE0",
"E  c #DADFE0",
"W  c #D7E1E1",
"Q  c #DCE3E3",
"!  c #DEE8E7",
"~  c #DFE6E8",
"^  c #DFE8EA",
"/  c #E1E6E6",
"(  c #E1E8E7",
")  c #E3E7E8",
"_  c #E5EBEB",
"`  c #E9EEEE",
"'  c #E7F0EE",
"]  c #E9F0EF",
"[  c #E7EEF0",
"{  c #EAEFF1",
"}  c #E6F0F1",
"|  c #EBF2F2",
" . c #EFF8F6",
".. c #EFF6F8",
"X. c #F2F5F5",
"o. c #F3F9F7",
"O. c #F5F7F8",
"+. c #F5F9FA",
"@. c #FDFEFE",
/* pixels */
"@.@.@.@.@.@.@.@.@.@.@.@.@.@.@.@.@.@.@.@.+.@.@.@.+.@.` E Y L D J D D I I R { O.O.@.@.+.@.@.@.@.@.@.@.@.@.@.@.@.+.@.@.@.@.@.@.@.@.",
"@.@.@.@.@.@.@.@.@.@.+.@.@.@.@.@.@.@.@.@.@.O./ L j g 9 t t o ; x x ; ; p g t g x I ` @.@.@.@.@.@.@.@.@.@.+.@.@.@.@.@.@.@.@.@.@.@.",
"@.@.@.@.@.@.@.@.@.@.@.@.@.@.@.@.@.@.+.) I h , e x t t / ^ p z } [ t p { E 9 t B q 7 l T { @.@.+.@.@.+.@.@.@.@.+.@.@.@.@.@.@.@.@.",
"@.@.@.@.@.@.@.@.@.@.@.@.@.@.@.@.@._ V d d = > E ..x u Q [ a 6 W R r p { Q t B O.L * , f h D | @.@.@.@.+.@.@.@.@.@.@.@.@.@.@.@.@.",
"@.@.@.@.@.@.@.@.@.@.@.@.@.@.O.{ v w * k } Y i A ^ x > r z 2 : a a : 2 s t 2 n ^ v s ! ' u O u Z X.@.@.@.+.+.@.@.@.@.@.@.@.@.@.@.",
"@.@.@.@.@.@.@.@.@.@.@.@.@.X.I j u s 8 b } U < * 6 r 2 : 3 < 6 J a 4 2 4 2 2 5 r & 5 Q ' h w f e x I O.@.@.@.@.@.@.@.@.@.@.@.@.@.",
"@.@.@.@.@.@.@.@.@.@.@.O.` B t # '  .k * u w : w : 3 5 : < : a ^ z 4 4 6 2 5 2 2 y 1 a e X m o.) % q L ` @.@.@.@.@.@.@.@.@.@.@.@.",
"@.@.@.@.@.@.@.@.@.@.@.) x ; % q U Q u 5 V k 3 < 3 3 2 2 z n F  .S a z p - 2 5 5 & u H V < k _ G 8 % 7 C | @.@.@.@.@.@.@.@.@.@.@.",
"@.@.@.@.@.@.@.@.+.@.E 9 v { D , > 0 V _ U w X 5 2 - : 3 6 6 S J J W n 6 > - - 2 3 > i _ ] V 1 = % P ) f d ` @.@.@.@.@.+.@.@.@.@.",
"@.@.@.@.@.@.@.@.@.Y 9 $ D | J 9 h L X.Q 0 X u m n S p 2   p ^ ^ R F :   a c J K v e $ v o.] G v q T o.N + e / @.@.@.@.@.@.@.@.@.",
"@.+.@.@.@.@.@.+.E t # ; t h h z / ] X.H u V ` ` { ..^ n 3 n ~ n z z 4 z ~ [ ..[ | / z v ( ] ] ) N f f e 7 % l ) @.@.@.@.@.@.@.@.",
"@.@.@.+.+.@.+.{ 0 n U z O 3 S [ ` { ! A G ) ] ] [ ~ R R S n n : 2 z z J R K Q _ | | ! L T _ ] ) ] A % @ A T l d O.@.@.+.@.@.@.@.",
"@.@.+.+.@.@._ h > ~ ..m y J [ } ' | ' ! ( { [ _ x r r z n r 3 2 2 r p p r 3 p J Q | ' ) ! '  .] ] X.L 8 A o.P % M X.@.+.@.@.@.@.",
"@.@.@.@.@.O.V . - c S s S ..} ~ _ Q T Y Q ..[ c 2 2 O - 3 3 3 r 2 - r 5 : - - r U X._ H H H U ( T ] ] N d M j @ + L @.@.@.@.@.@.",
"@.@.@.@.+.U z h u o 2 n K R F S S v m S A W S - > r 5 3 3 3 2 2 2 2 2 5 5 5 3 - c J H J G V v v A N P P M 7 % g g l Y @.@.+.@.@.",
"@.@.@.@._ h x ..U 0 z } } K J R Q _ ] } _ K z 3 5 > > 3 3 3 3 - 2 5 3 5 3 3 5 - > n W | ' _ _ ! P T T ] X.l 8 Y O.j M X.@.@.@.+.",
"@.+.@.@.m : V ' v b ) _ Y ] _ _ ` [ | [ J y - 3 3 r 6 3 3 6 6 6 > , 5 0 5 5 2 2 2 2 a H | ] ) ] o._ P P | ) v V ' k * T @.@.@.+.",
"@.@.@.Q w O 1 w w J X.! B V L J [ } ^ S y 3 5 5 : 3 3 2 2 2 3 3 0 8 , , 2 5 5 5 2 5 2 w Z ' | ! ( Z A P ) | U u e 1 X h ` @.@.@.",
"@.@.@.V k J s O v ` ` ` Y D Y U | ^ m 0 - 3 5 3 3 3 3 3 3 3 r 3 , 7 , 5 6 5 5 2 2 5 5 $ 5 G ` _ Z A G A T ] ) V * k F s U @.+.@.",
"+.@.` u H +.Z u ! X.) | _ H Q ` } S 5 2 3 3 3 5 r 3 3 3 2 3 3 3 = , , 3 2 3 2 2 5 2 6 0 > 1 Z ] T ( T A Q | _ ! i H +.Z M +.@.@.",
"@.@.G . c U y b | _ Y E Q Q _ X.J r - 3 r 3 3 5 r r r r 2 2 6 3 0 0 0 1 2 < 2 5 6 2 2 r 1 $ e H ] ' ( ( ' ] ] ' v s Y p $ / @.@.",
"@.o.j X w < 1 Q _ L L A L ` ] Q r 3 2 3 3 3 3 r n S R ^ R ~ ^ ^ T Q Q Q J n 6 O : 3 < > 0 , , e ! _ ' ' ' ) ` ] Q , 3 0 # V @.@.",
"@.) d b V > b  .Q U ` ) A ) ] b - 2 3 2 - 3 3 3 3 3 c R [ [ ~ S k v A ! ..} W S 2 5 2 , , 0 , * Z ! Q T ! U Y )  .l , V x j X.@.",
"+.U s  .' e H ' U v Y ) L _ ) * 3 2 2 2 r r 3 3 3 : r R { { S - 5 O X t F _ } ` v 5 > 9 1 3 0 0 5 ! _ H Z v L ] ` G u X.{ d ) @.",
"@.j 0 H v u ! ' ` ) U x Y | h 1 3 2 3 3 6 2 4 5 2 3 2 R { [ D - 5 3 5 3 0 H ] ` _ h * 3 > 1 3 3 1 v X.T M Y ) ` ' Q s V A 7 L @.",
"@.0 . e 1 k ] ` | | { / ` Q 5 * 3 3 5 4 3 3 3 3 3 3 - R [ [ D - 5 5 2 < $ c _ ` | Z 1 > 1 1 2 5 & y ! Q G ` { ` ` ' h 7 0 . x @.",
"` 0 p h $ V ] ` L Y / | | A * > 5 4 4 5 3 3 5 3 3 3 ; R { [ D - 5 5 5 5 O w ! _ | U 0 > 9 5 5 5 1 5 U ` ) ` { ` _ ] m > h p e +.",
"T s ] _ e L | Y L L C ) _ k 1 1 2 4 4 4 3 3 3 3 3 3 3 J [ [ D ; 3 5 3 0 : w ! _ ' T 0 , w 5 4 < 5 & N X.) Y I ) ` ` A h { ) d | ",
"L t ! Q u U { G { ) L / E d , 1 4 4 4 4 4 4 3 3 3 3 3 J { { D ; 2 5 , 5 > e ) _ ` T 0 > 5 5 4 4 5 & s ( Y V C D ) ` U v ) Y 0 ` ",
"H . 0 t * Q X.G Y / I ) E q 1 * 4 4 6 4 5 4 5 3 3 3 ; R { { D ; 5 6 > 3 > h _ ' ] H 0 , 3 4 5 5 < < y T E / ` Y Y ` / 0 0 0 % ) ",
"H $ u 5 , Q | Q B I I ` E 9 , > 4 4 4 4 4 4 5 3 3 3 ; I { { D ; 2 5 : 3 y A _ ' Q l , 5 > < 6 4 < 1 w T U I / I Q ` / , , d , / ",
"A h | Y s ! ] ] ` { ) { E 7 , 0 4 4 4 4 4 5 4 5 3 3 ; R { { D ; > 2 < 1 v ) | _ G , $ 0 < 5 6 < 1 < 5 ! Y M Y Y { ) / p L ` j Y ",
"Z h ' P i ! ` ` ) ) T ] ( 5 < < < < 2 4 < 5 5 5 s s h Y ` ` I d g g x R ..| ~ S 2 3 3 3 3 3 6 6 2 4 4 Q ` { ` O.{ ) / d L X.h / ",
"H & s 5 3 ! ] K L A N Y U 5 6 5 < < 4 2 3 1 5 0 Q Q U _ ) ` ` Y ) ~ E R J S y - 2 3 3 6 2 2 2 2 2 : 5 [ ` ) Y E ` ` / 7 5 d > ) ",
"P   6 w * Q | A ] ) P ( Q 5 < * < 4 2 4 4 1 5 5 < 3 0 G _ ) A , - , 3 9 3 - - - r 3 2 3 6 3 4 6 5 : w ^ Y D C M / { E 8 0 0 @ { ",
"P w ! Q y T ' H Q Y G ( ( w < 1 4 4 2 < < 5 5 5 Z V V ) | ] T N S S D D S S J J n r 2 3 3 2 2 3 < > i ! Y Y ` / I ` Y l ) Y q { ",
"T s ' _ u H ' ) C C G ) ` u : 5 4 4 4 4 3 1 5 5 G G S Q ( _ T A J J D D S S D J n r 2 3 6 3 3 3 5 * c _ U U ) Q E | L h ] / d X.",
"| 0 s k * m ] ] ` ` ` { X.b * < 4 4 4 4 5 5 3 1 * $ , G  .| A * ; ; - - 2 3 2 - r 3 2 3 3 3 3 3 5 < G | / A V L ` | v $ j d u @.",
"@.e . w > f ] ` { ` ` Y ] H 5 * 5 4 4 4 2 , 1 5 1 1 0 H ' ( A , 3 3 3 3 3 9 3 2 3 3 3 6 3 2 3 3 & 5 ! ] ] ` ) ] { | s 9 0 # v @.",
"+.M 0 H v u ) ) ` ) E l ) ) s 3 5 5 4 2 , 5 1 5 , , 1 H ] ] A > 3 3 6 3 3 3 3 9 3 3 3 3 3 3 3 9 > k ' H U ] ` ` ` / u C C 0 Y @.",
"+.Y u X.] y H ` ` L V Y ` ` A > 6 5 5 5 6 5 3 3 5 1 1 G ' ' H * 9 3 3 3 2 3 2 3 3 3 3 3 3 r 3 2 - ! ! F L V G ) ] A f X.` d ` @.",
"@.` d M S > c X./ M C I C Q _ d - 3 5 2 > 3 5 3 1 > 8 P ' ' H & 3 5 3 6 r 3 3 3 3 3 3 - - 6 9 - k ! ! T ] Q V Q X.c , Z v c O.@.",
"@.+.M . 1 > 3 T X.` ` ` / { { I 2 3 3 3 3 > 5 5 & > a U } ' K w 3 2 2 2 3 3 r 3 3 3 3 3 3 3 3 9 ! ` T N Q / H | W > 1 1 @ L @.@.",
"@.@.U . h U s v { { ) { | ` ` ` c 0 - 5 9 3 , y f b G ' } ' ' K z p 6 3 2 3 2 3 r 3 3 t 3 - t B ! ` ! L L U T ' c h Y u , ) @.@.",
"+.@.X.s H @.G y / / ` ) E / ` _ ) v 2 > 6 5 3 9 l m V V b l N b n z r 4 3 3 3 3 3 3 3 ; 3 3 n ) _ Y Q | ) ) | _ u H +.V B @.+.@.",
"@.@.@.A l G s $ V ` ` G L I D I ..R p 2 - 5 9 2 1 1 * * & & & & 4 : : 2 2 5 5 5 3 3 3 - 3 x R [ ' H H } ] ] | m O k A h E @.@.@.",
"@.@.@._ u X > u t Y ` L L L D E } [ R c 9 5 5 2 < = 1 1 1 0 1 1 3 4 4 6 5 5 5 3 3 3 3 r B ~ { [ V V V L ` | G 5 w > X c { @.@.@.",
"@.@.@.@.G = b ] v x ) ` M D { { ^ [ ] Q c 3 > 9 < 1 w 1 < < < 6 4 6 4 4 2 2 2 3 3 ; 3 B ~ { { Q Y Q G V ] ( v G ' h > ) @.O.@.@.",
"@.@.+.@.| l l O.P 7 l ] ' _ ] ( _ ' ' ' _ U i O 4 * * < 5 5 1 < 1 1 < 4 1 1 1 , & s Y } | _ _ ` } ' _ ] ] l 8 T X.l N @.@.@.o.@.",
"@.@.@.@.@.Y j f f + 8 A ] ' Q ! Q _ ` ' ] ! H S w 5 > * * > 1 5 < < < < 1 1 5 0 Z R ' | } Q U Y T T  .] N % % d d N ) @.@.@.@.@.",
"@.@.@.@.@.O.A @ % l M e l P Z b l M V G H U Q ! H H N s 0 , , % 1 1 1 y u k V H T J V v v v B v Z P T Z j N j + % Y o.@.@.@.@.@.",
"@.@.@.+.@.@.| v % T +.Z < N ' ' ] Q G L U K G V T ' ] ( Y U I L H H U Q Q T Y Y Y K H Y / } | | | ' l 8 P o.L % L o.@.@.@.@.o.@.",
"@.@.@.@.O.@.@. .f l P l X 1 H ] _ _ ) U V V K _ b Y ` { ` | O.` | ] ` ] { ) Y U v V V N V A Q ` | A % @ N P l N @.@.@.@.@.@.+.@.",
"@.+.@.@.@.@.@.@.] l @ % e f f l A V v A U Y H A K ! ` ` ) ` { ) ) ) ` ` ` / A v T Q Q U H A A H k l l 8 @ 7 N o.@.@.@.@.@.@.@.@.",
"@.@.@.@.@.@.@.+.o.( e = A o.P w w A ] ] U V N V ` ` ] { ` ` ` ) ` ` ) ) ` { ` / c v L _  .` A u 8 / X.l @ N ] @.+.@.@.@.@.@.@.@.",
"@.@.@.O.@.@.@.@.o.@.] e l ' A = , u v v V I ) | ` _ ` ` ` ` ` ` ` { | ) ) { { ` X.! V V G Z y X = T ( d N o.@.@.@.@.@.@.@.@.@.@.",
"@.@.@.@.@.@.@.@.@.@.@.] A 7 % q U ! s > Z ! ] ] ] ` ` ` ` ) ) { ` ` ` ` ) ` ` ] ` ` Q b * k ^ H 7 + 8 L O.@.@.@.@.@.@.@.@.@.@.@.",
"@.@.@.@.@.@.@.@.@.@.@.@.] L d % | } k O 0 w h U ! ) | | { { | _ ` ` ] ) ` ] ` Q T h w 5 * b | ! % j / O.@.@.@.@.@.@.@.@.@.@.@.@.",
"@.@.@.@.@.@.@.@.@.o.@.@.@.@.T N f u 5 v ] H O * u h v C U / ! / / ) / U A M s u $ 3 Q ] k , s h C ) @.@.@.@.@.@.@.@.@.@.@.@.@.@.",
"@.@.@.@.@.@.@.@.@.@.@.o.@.@.@.o.L h > h ' T u V / h , u f , , i d % 7 h e , c / v p Q ` s * l Y @.@.@.@.O.@.@.@.@.@.@.@.@.@.@.@.",
"@.@.@.@.@.@.@.@.@.@.@.@.@.@.@.@.@.O.U v x 7 ; U +.v s ) ) d e Y L , h _ Y u V +.L % , j V Q @.@.@.@.@.+.@.@.@.@.@.@.@.@.@.@.@.@.",
"@.@.@.@.@.@.@.@.@.@.@.@.@.o.@.@.@.@.@.X.) B 9 j v % 0 ) ) p h X.] u x { Y , , M j t C ` O.@.@.+.@.@.@.@.@.@.@.@.@.@.@.@.@.@.@.@.",
"@.@.@.@.@.@.@.@.@.@.+.@.@.@.@.@.@.@.+.@.@.@.X./ L j d x t . $ M B $ @ h j g M L ` O.@.@.@.O.@.@.@.@.@.@.@.@.@.@.@.@.@.@.@.@.@.@.",
"@.@.@.@.@.@.@.@.@.@.@.@.o.@.@.@.O.@.@.@.@.@.@.+.@.@.+.X.` ) ) / ( ( _ ` X.+.@.@.@.@.@.@.@.@.@.O.@.@.@.@.@.@.@.@.@.@.@.@.@.@.@.@."
};
