<?xml version="1.0" standalone="no"?>
<!DOCTYPE svg PUBLIC "-//W3C//DTD SVG 20010904//EN"
 "http://www.w3.org/TR/2001/REC-SVG-20010904/DTD/svg10.dtd">
<svg version="1.0" xmlns="http://www.w3.org/2000/svg"
 width="900.000000pt" height="900.000000pt" viewBox="0 0 900.000000 900.000000"
 preserveAspectRatio="xMidYMid meet">
<metadata>
Created by potrace 1.10, written by Peter Selinger 2001-2011
</metadata>
<g transform="translate(0.000000,900.000000) scale(0.100000,-0.100000)"
fill="#676767" stroke="none">
<path d="M4125 8887 c-22 -4 -60 -9 -85 -11 -142 -10 -226 -19 -235 -26 -5 -4
-44 -11 -85 -14 -41 -4 -88 -11 -105 -16 -16 -5 -75 -18 -130 -30 -55 -12
-113 -26 -130 -30 -136 -36 -445 -138 -460 -151 -5 -5 -15 -9 -22 -9 -7 0 -41
-13 -75 -29 -35 -15 -87 -38 -116 -50 -76 -31 -386 -191 -462 -238 -56 -35
-124 -79 -194 -125 -10 -7 -44 -31 -75 -53 -31 -22 -67 -48 -81 -56 -63 -41
-276 -217 -374 -309 -201 -190 -352 -353 -471 -510 -28 -36 -56 -71 -63 -79
-7 -7 -21 -26 -30 -40 -9 -14 -35 -51 -57 -82 -43 -61 -47 -66 -101 -149 -114
-172 -254 -437 -343 -650 -29 -69 -59 -139 -67 -157 -8 -17 -14 -37 -14 -45 0
-8 -4 -18 -8 -24 -9 -9 -68 -186 -98 -294 -9 -30 -20 -68 -25 -85 -4 -16 -11
-50 -15 -75 -4 -25 -11 -53 -16 -64 -10 -19 -20 -72 -42 -216 -7 -47 -15 -92
-18 -100 -8 -18 -21 -172 -19 -216 1 -17 -4 -44 -10 -60 -14 -36 -20 -714 -6
-759 5 -16 10 -52 12 -80 6 -109 18 -221 25 -230 4 -5 10 -44 14 -85 4 -41 11
-88 16 -105 5 -16 20 -79 34 -140 25 -115 43 -182 71 -275 9 -30 21 -73 26
-95 6 -22 14 -44 20 -49 5 -6 9 -16 9 -23 0 -13 74 -207 105 -278 62 -139 222
-452 279 -545 93 -153 297 -448 325 -470 3 -3 24 -27 46 -55 21 -27 42 -52 45
-55 3 -3 16 -18 29 -35 45 -60 381 -394 486 -484 31 -26 196 -151 330 -249 47
-34 206 -138 275 -179 112 -67 551 -282 577 -283 4 -1 26 -9 48 -20 22 -11 47
-19 55 -20 9 0 20 -4 25 -9 10 -9 170 -64 280 -96 33 -10 71 -22 85 -26 14 -5
43 -11 65 -14 22 -4 49 -10 60 -15 25 -11 167 -41 220 -47 22 -2 49 -8 60 -13
11 -5 67 -14 125 -20 58 -6 146 -15 195 -20 114 -12 758 -12 885 0 213 20 297
30 330 39 19 6 49 12 65 15 17 3 73 15 125 26 52 12 115 25 140 31 25 5 56 13
70 18 14 4 52 16 85 26 83 24 266 84 290 95 11 5 45 19 75 30 30 12 69 27 85
34 133 60 187 86 310 148 203 102 329 178 570 347 28 19 55 39 62 45 18 16 31
26 103 81 162 123 507 459 627 610 17 22 60 76 95 119 220 277 409 597 593
1011 43 95 117 305 160 450 10 33 22 71 26 85 5 14 13 45 18 70 6 25 19 88 31
140 11 52 23 109 26 125 3 17 9 46 15 65 8 32 15 88 38 325 13 124 13 780 1
890 -5 50 -14 137 -20 195 -6 58 -15 113 -20 122 -6 10 -10 28 -10 40 0 27
-38 215 -49 243 -5 11 -13 43 -19 70 -5 28 -17 75 -26 105 -9 30 -21 73 -27
95 -6 22 -14 44 -20 49 -5 6 -9 18 -9 27 0 17 -57 175 -85 236 -8 17 -15 34
-15 38 0 3 -12 32 -26 63 -14 31 -40 88 -57 126 -29 64 -108 223 -135 271 -45
83 -117 201 -124 203 -4 2 -8 8 -8 13 0 7 -79 129 -112 174 -4 6 -42 57 -84
115 -213 291 -448 535 -779 809 -36 29 -149 115 -180 137 -16 11 -68 47 -115
79 -249 172 -665 384 -950 484 -41 15 -80 30 -86 33 -6 4 -28 12 -50 17 -21 6
-64 18 -94 27 -30 9 -77 22 -105 28 -27 6 -55 14 -60 18 -6 3 -28 9 -50 13
-22 4 -54 11 -71 16 -93 28 -422 78 -529 80 -27 1 -61 6 -75 12 -30 12 -687
16 -745 4z m446 -123 c66 -33 99 -89 99 -164 0 -57 -10 -81 -49 -123 -38 -42
-73 -57 -130 -57 -68 0 -111 23 -149 79 -63 92 -34 211 65 265 37 20 126 20
164 0z m-556 -33 c52 -23 88 -67 104 -124 34 -120 -82 -243 -210 -222 -51 9
-112 54 -133 100 -27 56 -18 142 18 190 53 69 143 92 221 56z m1101 0 c23 -10
54 -36 70 -57 26 -33 29 -46 29 -109 0 -63 -3 -76 -28 -108 -93 -122 -277 -88
-323 58 -16 51 -16 56 1 102 22 60 49 91 100 114 51 24 99 24 151 0z m-1637
-97 c17 -4 49 -23 71 -43 98 -89 70 -244 -55 -302 -22 -10 -52 -19 -67 -19
-45 0 -114 36 -144 76 -26 34 -29 45 -29 113 0 65 4 81 24 108 44 59 118 83
200 67z m2156 -14 c64 -31 89 -72 93 -155 4 -68 2 -73 -30 -115 -26 -35 -46
-49 -90 -64 -51 -18 -60 -19 -99 -6 -101 33 -156 130 -130 228 29 111 149 164
256 112z m-2633 -160 c58 -34 82 -76 86 -150 4 -78 -16 -122 -74 -162 -31 -22
-50 -27 -97 -28 -66 0 -103 16 -140 59 -73 87 -51 222 46 281 44 27 134 27
179 0z m3157 -4 c95 -60 119 -193 48 -272 -42 -49 -77 -64 -144 -64 -69 1
-127 34 -156 90 -26 50 -20 154 12 198 51 72 165 95 240 48z m-1669 -156 c0
-11 6 -34 14 -52 17 -41 35 -93 46 -133 5 -16 15 -48 24 -70 19 -50 20 -109 3
-123 -7 -6 -28 -32 -47 -58 l-33 -47 37 7 c21 4 52 13 70 20 31 13 167 56 303
96 40 12 80 20 90 18 16 -3 15 -6 -8 -28 -15 -14 -46 -39 -70 -56 -179 -126
-219 -159 -219 -182 0 -13 25 -99 55 -190 30 -91 55 -170 55 -174 0 -38 -122
104 -246 288 -14 20 -32 43 -40 51 -8 8 -22 29 -32 46 l-17 32 -5 -97 c-3 -53
-9 -101 -15 -106 -38 -33 -335 -242 -344 -242 -6 0 -11 7 -11 17 0 13 34 125
68 223 3 8 17 50 32 93 15 43 32 83 38 89 13 13 75 38 115 45 15 3 29 9 32 13
5 8 -116 51 -185 65 -19 4 -41 11 -50 16 -8 5 -46 18 -85 29 -88 25 -146 52
-142 65 2 6 78 11 192 13 136 2 191 6 197 15 4 6 20 50 34 97 28 89 81 254 90
280 4 12 11 9 30 -13 13 -15 24 -37 24 -47z m-1975 -114 c95 -51 113 -192 36
-280 -26 -29 -87 -56 -129 -56 -57 0 -105 23 -146 72 -33 38 -36 47 -36 105 0
75 16 111 65 149 62 47 135 50 210 10z m4148 -2 c57 -37 77 -77 77 -153 0 -57
-4 -69 -32 -107 -108 -140 -328 -67 -328 109 0 147 158 231 283 151z m-806
-139 c27 -13 111 -52 198 -90 91 -39 340 -168 380 -195 24 -17 46 -30 49 -30
5 0 100 -65 220 -150 200 -142 628 -533 611 -559 -22 -37 -204 -71 -381 -71
-131 0 -301 19 -349 39 -41 18 -152 50 -229 67 -178 38 -352 -21 -479 -162
-55 -62 -48 -90 9 -36 37 37 109 78 176 103 58 21 245 27 302 10 17 -6 75 -24
128 -41 138 -43 205 -53 363 -54 136 0 223 10 295 34 65 22 145 54 155 62 25
22 61 6 100 -44 219 -279 329 -448 459 -703 71 -138 157 -333 191 -430 9 -27
21 -59 25 -70 5 -11 18 -54 30 -95 12 -41 25 -86 30 -100 9 -27 31 -116 54
-220 14 -62 30 -157 57 -335 7 -46 14 -226 17 -420 3 -275 1 -368 -13 -485
-22 -185 -75 -486 -91 -511 -2 -4 -8 -27 -13 -51 -18 -86 -99 -323 -161 -468
-70 -163 -197 -416 -253 -504 -161 -254 -334 -480 -488 -638 -58 -59 -86 -70
-112 -44 -35 35 -248 116 -306 116 -15 0 -32 5 -38 11 -8 8 -63 10 -185 6
-143 -4 -190 -10 -271 -31 -55 -15 -109 -32 -120 -38 -15 -8 -74 -13 -177 -13
-175 0 -196 6 -317 88 -87 58 -87 58 42 127 206 110 416 268 595 449 176 177
236 249 362 441 82 125 144 237 184 333 15 34 34 80 44 102 41 91 60 138 60
151 0 7 6 28 14 46 8 18 22 60 31 93 8 33 20 74 25 90 5 17 14 57 20 90 41
251 41 252 37 610 -3 219 -9 367 -17 395 -6 25 -16 77 -22 115 -5 39 -14 74
-19 79 -5 6 -9 19 -9 31 0 11 -12 54 -26 95 -14 41 -30 93 -35 115 -6 22 -14
44 -20 49 -5 6 -9 16 -9 23 0 14 -36 93 -121 269 -48 98 -204 354 -228 374 -4
3 -36 43 -73 90 -81 104 -307 329 -408 407 -41 31 -77 60 -80 63 -3 4 -54 39
-115 79 -67 45 -112 82 -115 95 -5 16 -12 20 -33 18 -19 -2 -29 2 -34 15 -8
22 -96 167 -151 250 -89 133 -304 253 -452 253 -97 0 -163 -32 -252 -122 -42
-43 -81 -78 -87 -78 -26 0 -3 90 51 198 74 145 220 260 403 318 84 27 285 27
370 0 180 -56 338 -163 464 -313 24 -29 47 -53 52 -53 15 0 -5 88 -52 234 -69
210 -119 294 -271 451 -37 38 -68 73 -68 78 0 12 47 8 77 -8z m-2767 -29 c0
-7 -8 -20 -17 -27 -42 -35 -167 -188 -206 -253 -37 -61 -57 -112 -127 -332
-17 -52 -28 -124 -20 -129 4 -3 19 10 33 28 145 183 330 301 546 348 132 29
211 22 361 -32 123 -45 241 -136 314 -242 41 -60 96 -187 96 -223 0 -38 -34
-30 -68 16 -31 43 -96 96 -150 124 -44 23 -155 31 -220 17 -180 -38 -366 -198
-464 -397 -52 -105 -101 -157 -238 -249 -145 -98 -195 -140 -355 -300 -217
-217 -377 -437 -499 -690 -90 -185 -96 -198 -136 -310 -17 -49 -34 -97 -37
-105 -3 -8 -12 -42 -20 -75 -37 -156 -54 -236 -65 -305 -14 -86 -17 -706 -5
-785 31 -199 104 -478 152 -582 8 -17 15 -33 15 -36 0 -15 133 -292 172 -357
37 -61 91 -144 122 -186 17 -23 40 -54 51 -70 120 -166 399 -445 545 -544 12
-8 41 -29 64 -46 55 -40 138 -94 207 -133 32 -17 59 -37 62 -45 3 -7 23 -16
44 -19 48 -8 104 -42 110 -67 4 -16 8 -17 24 -7 16 10 29 6 78 -21 32 -17 66
-32 75 -32 10 0 56 -13 104 -29 125 -43 279 -79 432 -104 99 -15 709 -15 805
1 79 13 219 42 315 67 36 9 75 13 87 10 13 -3 23 -1 23 5 0 6 17 17 38 26 20
9 52 23 69 32 30 14 35 14 52 -2 10 -9 21 -31 25 -48 18 -93 138 -232 246
-286 81 -41 136 -51 329 -62 85 -5 166 -14 180 -19 14 -6 51 -15 81 -20 120
-20 320 -106 320 -138 0 -17 -216 -157 -328 -213 l-63 -32 -35 29 c-83 65
-229 163 -244 163 -8 0 -25 7 -36 15 -22 15 -75 35 -159 62 -250 77 -428 239
-451 411 -10 77 -24 74 -24 -7 0 -79 25 -156 76 -236 75 -119 169 -181 369
-244 116 -37 264 -107 350 -165 33 -22 62 -41 63 -42 2 -2 1 -11 -2 -21 -3
-10 -29 -29 -58 -42 -144 -65 -179 -80 -248 -108 -107 -43 -201 -73 -425 -137
-79 -23 -266 -58 -455 -87 -41 -6 -232 -14 -425 -16 -284 -4 -376 -2 -490 11
-318 38 -506 80 -813 182 -72 25 -160 57 -195 73 -34 15 -77 34 -95 42 -103
43 -197 96 -200 111 -4 21 182 113 326 162 149 50 234 99 295 170 29 34 61 74
71 89 31 50 56 139 62 217 5 69 4 73 -9 50 -8 -14 -18 -41 -22 -60 -21 -99
-116 -223 -228 -298 -55 -37 -88 -51 -205 -92 -126 -44 -242 -99 -297 -140
-87 -65 -88 -65 -154 -28 -152 85 -261 161 -261 182 0 11 122 61 210 86 25 6
115 21 200 32 184 23 281 43 335 70 133 67 252 223 272 358 5 31 4 33 -11 21
-9 -7 -16 -21 -16 -30 0 -54 -138 -206 -220 -243 -124 -57 -153 -66 -221 -72
-124 -12 -231 -27 -299 -42 -76 -18 -252 -87 -291 -115 -15 -10 -32 -19 -37
-19 -20 0 -174 120 -301 235 -171 156 -177 163 -160 180 30 30 179 48 354 42
167 -6 217 -15 390 -69 87 -28 114 -32 215 -32 130 -1 191 16 276 75 83 57
187 170 171 185 -3 4 -29 -17 -58 -44 -29 -28 -86 -68 -127 -89 -73 -37 -79
-38 -196 -41 -121 -4 -174 3 -276 34 -203 61 -416 81 -539 50 -31 -8 -86 -22
-122 -31 -37 -9 -79 -23 -94 -31 -15 -8 -33 -14 -41 -14 -21 0 -90 75 -263
285 -31 38 -137 190 -195 280 -32 50 -67 102 -77 118 -20 27 -152 289 -202
397 -141 307 -238 654 -293 1040 -22 154 -31 682 -15 840 28 266 41 348 88
550 47 207 114 407 200 600 13 30 31 71 40 90 72 165 203 397 312 555 71 103
210 285 235 308 21 19 34 17 111 -18 104 -46 188 -60 370 -60 179 0 223 7 381
61 107 36 245 51 338 36 85 -13 191 -60 233 -103 31 -32 43 -36 43 -15 0 25
-112 116 -190 154 -74 37 -76 37 -200 37 -119 0 -188 -12 -265 -45 -71 -31
-307 -70 -426 -70 -148 0 -354 45 -347 76 6 24 315 332 422 419 269 221 553
399 861 539 55 25 111 52 125 60 33 19 60 20 60 2z m-1090 -156 c62 -32 94
-81 98 -154 4 -75 -16 -118 -76 -160 -80 -56 -201 -34 -251 47 -34 56 -41 107
-20 163 41 107 152 154 249 104z m5155 -8 c48 -33 87 -100 89 -151 1 -53 -39
-128 -85 -158 -32 -21 -51 -26 -100 -25 -102 1 -169 62 -177 159 -6 66 2 94
34 133 62 73 167 92 239 42z m-5605 -437 c87 -45 119 -178 62 -260 -15 -22
-46 -50 -67 -62 -81 -46 -180 -19 -237 62 -54 78 -30 198 48 250 55 36 135 40
194 10z m6072 -11 c79 -50 103 -171 50 -249 -15 -22 -46 -50 -67 -62 -81 -46
-180 -19 -237 62 -22 33 -27 51 -28 101 0 52 4 67 30 102 60 83 163 102 252
46z m-6485 -475 c34 -13 80 -55 99 -91 8 -15 14 -53 14 -85 -1 -104 -72 -173
-178 -173 -72 0 -118 24 -153 79 -50 78 -34 180 37 242 41 36 127 49 181 28z
m6872 -18 c85 -61 107 -169 51 -253 -40 -61 -84 -81 -164 -76 -72 4 -117 32
-147 90 -23 44 -25 127 -5 166 18 34 64 78 96 91 42 18 132 8 169 -18z m-7149
-510 c54 -27 89 -85 90 -147 0 -95 -48 -162 -132 -184 -77 -21 -159 10 -205
79 -33 48 -32 137 1 189 54 85 152 110 246 63z m7448 -3 c52 -32 82 -88 82
-151 0 -90 -48 -155 -129 -177 -119 -31 -231 51 -231 170 0 148 152 234 278
158z m-3333 -378 c177 -28 246 -49 387 -113 83 -38 154 -83 203 -129 17 -15
33 -28 36 -28 12 0 137 -158 172 -217 38 -66 48 -93 78 -218 24 -102 26 -292
3 -379 -8 -34 -20 -79 -25 -101 -17 -65 -79 -186 -128 -250 -125 -164 -285
-261 -531 -325 -91 -24 -231 -34 -535 -39 l-330 -6 -3 -83 c-2 -53 1 -89 9
-98 10 -12 122 -14 703 -14 525 0 695 -3 704 -12 15 -15 16 -102 2 -129 -10
-18 -29 -19 -700 -19 -378 0 -695 -3 -704 -6 -14 -5 -16 -41 -16 -303 1 -356
10 -483 40 -537 32 -57 66 -90 125 -119 44 -21 66 -25 141 -25 115 0 162 -13
170 -46 5 -17 1 -31 -10 -42 -15 -15 -77 -17 -690 -20 -440 -1 -683 1 -700 8
-24 9 -27 15 -24 47 3 35 6 38 43 45 22 4 76 7 120 8 93 1 145 19 208 72 62
52 75 85 86 229 11 138 16 663 6 679 -4 6 -92 10 -230 10 -212 0 -225 1 -235
19 -14 27 -13 114 2 129 9 9 73 12 228 12 118 0 221 4 228 8 9 6 12 33 10 98
l-3 89 -223 5 c-255 6 -252 5 -252 90 0 85 -3 83 250 86 122 1 224 5 226 7 10
9 3 1106 -7 1222 -15 176 -45 231 -154 281 -43 20 -66 24 -158 24 -127 0 -147
7 -147 55 0 29 4 34 28 38 63 8 1541 6 1597 -3z m-4348 -175 c129 -54 151
-208 44 -309 -25 -24 -42 -30 -91 -34 -74 -5 -100 1 -140 34 -44 37 -61 77
-62 142 -2 132 126 218 249 167z m7855 3 c51 -15 117 -88 120 -132 5 -93 -12
-140 -67 -181 -153 -117 -362 54 -275 225 41 80 130 116 222 88z m-7947 -626
c49 -34 85 -95 85 -145 0 -76 -63 -156 -141 -177 -176 -48 -306 171 -177 299
66 66 157 75 233 23z m8115 3 c91 -63 105 -199 28 -276 -96 -95 -243 -68 -299
56 -24 52 -24 92 0 141 52 107 177 144 271 79z m-8162 -579 c53 -33 69 -55 83
-109 23 -84 -16 -173 -93 -213 -39 -20 -122 -18 -166 5 -20 10 -48 34 -62 53
-22 28 -25 43 -25 110 0 62 4 82 21 105 54 72 169 96 242 49z m8188 11 c73
-43 104 -92 104 -167 0 -105 -73 -179 -177 -180 -70 0 -113 22 -151 79 -63 92
-34 211 65 265 34 18 130 20 159 3z m-8185 -578 c66 -23 128 -105 129 -172 0
-78 -66 -160 -144 -178 -70 -15 -123 0 -174 51 -56 57 -68 131 -32 206 25 51
48 72 97 90 47 16 80 17 124 3z m8160 -23 c44 -29 79 -97 79 -151 0 -54 -34
-118 -78 -148 -98 -67 -222 -31 -273 78 -24 51 -24 96 0 143 54 105 177 140
272 78z m-8051 -577 c80 -18 140 -93 140 -174 0 -61 -31 -119 -82 -152 -34
-23 -53 -28 -103 -28 -108 0 -177 68 -178 176 0 87 44 149 125 174 53 17 44
16 98 4z m7871 0 c87 -30 132 -91 132 -180 -1 -107 -72 -174 -184 -174 -133 0
-219 137 -160 253 45 88 130 128 212 101z m-7640 -570 c102 -35 150 -159 99
-259 -63 -123 -241 -128 -316 -8 -28 44 -33 132 -10 176 42 81 140 120 227 91z
m7440 0 c109 -37 156 -179 91 -274 -39 -56 -82 -78 -152 -78 -106 0 -180 73
-180 178 0 83 42 144 117 171 47 16 80 17 124 3z m-7093 -538 c45 -31 72 -89
72 -151 0 -61 -17 -96 -64 -138 -41 -36 -87 -47 -150 -38 -121 19 -188 171
-120 272 47 69 78 84 164 81 50 -2 73 -8 98 -26z m6834 4 c80 -60 103 -173 50
-249 -46 -66 -74 -81 -151 -81 -59 0 -72 4 -105 29 -55 41 -76 82 -76 144 0
81 42 147 110 175 33 14 145 2 172 -18z m-2311 -408 c159 -157 330 -189 584
-112 44 13 114 31 155 40 90 20 339 29 407 15 26 -6 75 -15 107 -21 84 -14
164 -43 188 -66 19 -20 19 -21 -114 -141 -147 -134 -298 -252 -322 -252 -8 0
-41 17 -73 38 -57 36 -137 78 -178 93 -94 33 -124 43 -183 55 -37 8 -128 19
-202 24 -172 12 -220 21 -314 60 -89 37 -158 89 -206 156 -77 107 -76 128 2
161 29 12 58 22 64 22 6 1 44 -32 85 -72z m-4160 -77 c21 -11 53 -39 69 -62
25 -34 30 -50 30 -100 0 -109 -74 -183 -182 -182 -106 1 -178 77 -178 186 1
131 144 217 261 158z m6060 0 c21 -11 53 -39 69 -62 37 -51 41 -127 10 -188
-62 -122 -248 -125 -319 -5 -33 57 -30 140 9 193 56 78 150 103 231 62z
m-5586 -450 c17 -10 41 -34 55 -52 22 -28 25 -44 25 -110 0 -72 -2 -79 -30
-108 -84 -88 -204 -92 -282 -8 -87 93 -34 267 91 299 43 11 104 2 141 -21z
m5142 -2 c38 -22 67 -67 82 -124 20 -76 -24 -158 -104 -195 -76 -35 -155 -17
-219 49 -24 26 -29 41 -33 99 -3 54 0 75 15 103 49 89 171 121 259 68z m-4664
-324 c45 -23 66 -44 88 -86 22 -42 25 -122 6 -154 -44 -75 -92 -106 -166 -107
-78 0 -135 33 -170 100 -15 30 -14 129 3 161 44 85 159 126 239 86z m4166 -14
c61 -44 81 -83 81 -156 0 -52 -4 -67 -30 -102 -39 -54 -81 -75 -150 -75 -59 0
-98 18 -135 62 -36 43 -44 65 -45 114 0 107 78 186 186 187 41 0 59 -6 93 -30z
m-3650 -264 c58 -37 84 -86 84 -158 -1 -69 -25 -112 -87 -152 -54 -35 -138
-36 -187 -3 -119 80 -116 243 6 318 45 28 135 26 184 -5z m3140 10 c71 -37
113 -126 97 -203 -42 -191 -319 -189 -355 2 -15 81 12 147 78 190 43 28 136
34 180 11z m-2654 -155 c99 -46 140 -150 96 -247 -26 -57 -80 -96 -140 -102
-65 -6 -110 10 -156 58 -37 38 -40 45 -43 108 -4 87 16 125 88 170 62 36 98
40 155 13z m2117 2 c54 -21 106 -75 114 -120 26 -138 -59 -242 -191 -231 -188
16 -224 268 -50 349 50 23 73 23 127 2z m-1620 -103 c52 -15 97 -55 119 -108
25 -57 24 -83 -5 -140 -28 -56 -49 -76 -99 -97 -75 -31 -162 -6 -213 61 -26
33 -29 46 -29 108 0 57 4 77 22 102 48 68 126 95 205 74z m1124 -9 c23 -10 54
-36 70 -57 26 -33 29 -46 29 -109 0 -63 -3 -76 -28 -108 -95 -125 -277 -88
-327 66 -18 57 2 120 56 173 23 23 52 44 65 47 52 10 96 6 135 -12z m-529 -42
c55 -34 83 -88 83 -160 0 -71 -20 -111 -74 -153 -29 -22 -45 -26 -101 -26 -80
0 -115 16 -155 72 -26 35 -30 50 -30 104 0 74 23 122 79 160 48 33 147 34 198
3z"/>
<path d="M7137 6673 c-4 -3 -7 -16 -7 -28 0 -14 -15 -32 -42 -51 -24 -17 -93
-67 -154 -111 -141 -102 -143 -104 -165 -90 -35 22 -31 -3 7 -53 42 -55 54
-61 54 -27 0 21 14 34 116 109 20 14 42 -2 90 -67 73 -100 145 -121 222 -65
46 33 57 60 50 125 -4 35 -47 114 -78 145 -3 3 -23 31 -44 63 -22 31 -40 57
-41 57 -1 0 -5 -3 -8 -7z m75 -135 c39 -49 58 -89 58 -122 0 -32 -36 -75 -76
-92 -51 -21 -89 -8 -137 48 -56 65 -61 81 -34 106 28 25 140 102 149 102 4 0
22 -19 40 -42z"/>
<path d="M7110 5768 c0 -19 32 -98 40 -98 4 0 12 11 18 24 9 20 20 25 74 30
78 9 95 3 103 -35 4 -16 11 -29 16 -29 5 0 9 -8 9 -18 0 -10 7 -27 15 -38 26
-35 18 -58 -41 -108 -41 -36 -58 -46 -67 -37 -18 18 -30 13 -24 -11 19 -81 57
-138 57 -87 0 17 49 71 175 193 97 94 175 179 175 188 0 10 -8 21 -17 26 -21
11 -187 6 -285 -8 -103 -15 -200 -13 -226 6 -16 11 -22 12 -22 2z m470 -30
c-1 -16 -12 -30 -82 -97 -44 -42 -60 -52 -77 -46 -11 3 -21 14 -21 24 0 9 -7
26 -15 37 -18 24 -19 58 -2 72 25 21 197 29 197 10z"/>
<path d="M7548 5033 c-68 -18 -125 -63 -156 -125 -30 -61 -31 -162 -1 -219 19
-38 19 -42 4 -65 -9 -14 -13 -28 -11 -33 3 -5 46 -9 96 -10 50 0 99 -5 110
-11 21 -11 30 4 30 53 0 49 -13 62 -35 37 -13 -15 -31 -20 -68 -20 -44 0 -53
4 -83 37 -31 33 -34 43 -34 95 0 65 18 110 59 146 51 46 82 57 166 57 97 0
150 -24 195 -87 25 -34 30 -51 30 -96 0 -67 -25 -112 -82 -148 -52 -33 -38
-46 32 -30 53 12 55 14 53 44 -2 16 4 43 12 59 8 15 15 53 15 83 -1 113 -76
205 -193 236 -62 16 -66 16 -139 -3z"/>
<path d="M7535 4199 c-59 -24 -96 -57 -120 -107 -10 -20 -21 -44 -26 -53 -51
-107 29 -267 156 -312 128 -45 246 -5 315 108 20 33 24 52 25 125 0 75 -3 90
-27 131 -31 52 -82 90 -151 113 -63 21 -111 19 -172 -5z m155 -56 c66 -25 115
-57 141 -95 20 -27 24 -45 24 -104 -1 -62 -4 -76 -28 -108 -39 -51 -74 -66
-153 -66 -113 0 -229 72 -264 164 -15 40 -12 92 5 106 8 7 15 18 15 24 0 17
60 73 90 85 39 15 120 13 170 -6z"/>
<path d="M7228 3313 c-56 -114 -63 -136 -66 -199 -5 -80 8 -116 62 -172 48
-51 107 -74 192 -74 57 0 81 5 114 23 41 23 110 106 110 133 0 8 4 17 9 21 11
6 81 150 81 165 0 13 -6 13 -28 -1 -14 -9 -53 7 -204 80 -168 81 -188 93 -188
115 0 55 -22 30 -82 -91z m108 -7 c16 -8 95 -46 176 -85 80 -39 148 -76 150
-83 7 -19 -56 -129 -96 -170 -76 -76 -217 -61 -318 34 -63 58 -72 123 -32 214
14 33 30 69 35 82 10 26 42 29 85 8z"/>
<path d="M6956 2747 c-33 -43 -33 -59 -2 -51 19 4 29 -2 54 -33 56 -71 59 -87
26 -135 -16 -24 -35 -49 -41 -56 -7 -7 -13 -17 -13 -20 0 -4 -9 -13 -20 -20
-28 -17 -146 20 -155 49 -9 29 -21 23 -55 -25 -35 -52 -39 -72 -11 -56 14 7
38 6 83 -4 58 -14 88 -22 238 -63 147 -40 172 -44 186 -32 8 6 14 18 14 25 0
8 -58 101 -130 207 -85 127 -130 203 -130 221 0 35 -14 33 -44 -7z m197 -292
c67 -101 63 -108 -47 -80 -131 33 -132 36 -48 142 9 12 22 22 27 22 6 1 36
-38 68 -84z"/>
<path d="M1682 6608 c-7 -7 -12 -18 -12 -25 0 -15 40 -76 53 -81 4 -2 7 -8 7
-13 0 -11 42 -72 53 -77 4 -2 7 -8 7 -13 0 -8 99 -159 111 -169 3 -3 14 -24
24 -47 11 -24 22 -43 25 -43 9 0 50 57 50 70 0 6 -12 9 -27 8 -22 -3 -33 6
-65 51 -21 30 -38 60 -38 66 0 7 16 33 35 58 19 25 35 50 35 55 0 5 11 15 25
22 20 11 35 11 77 1 64 -14 81 -24 83 -48 0 -10 4 -19 9 -21 8 -3 76 82 76 96
0 5 -21 9 -47 9 -45 0 -71 6 -213 48 -30 9 -80 23 -110 30 -30 7 -71 18 -90
24 -44 14 -53 14 -68 -1z m172 -82 c44 -12 81 -27 84 -34 2 -7 -10 -30 -27
-51 -17 -21 -31 -44 -31 -50 0 -6 -13 -11 -30 -11 -16 0 -30 5 -30 11 0 6 -20
37 -45 69 -25 32 -45 65 -45 73 0 20 12 29 29 21 9 -4 52 -16 95 -28z"/>
<path d="M1439 6035 c-25 -8 -61 -30 -80 -48 -38 -37 -177 -302 -165 -314 4
-4 13 0 20 10 25 33 46 26 331 -116 71 -35 87 -52 79 -84 -4 -12 -2 -23 2 -23
10 0 126 236 143 289 35 110 -34 232 -157 280 -61 24 -108 26 -173 6z m173
-77 c32 -17 73 -50 91 -72 29 -36 32 -47 31 -106 0 -45 -6 -74 -17 -90 -9 -14
-17 -30 -17 -38 0 -7 -5 -18 -10 -25 -6 -7 -17 -21 -24 -31 -12 -18 -15 -18
-72 9 -202 94 -324 158 -324 170 0 20 64 139 88 163 36 36 75 51 136 52 47 0
70 -6 118 -32z"/>
<path d="M1185 5179 c-56 -28 -94 -67 -121 -124 -59 -125 -7 -272 118 -336 55
-28 178 -31 228 -5 45 23 110 85 110 106 0 8 7 24 15 34 10 14 15 44 15 95 0
67 -4 82 -30 123 -16 25 -44 57 -62 70 -79 59 -198 75 -273 37z m138 -46 c166
-45 247 -179 178 -295 -36 -59 -83 -83 -166 -83 -192 0 -316 146 -246 291 24
49 47 70 97 88 51 19 63 19 137 -1z"/>
<path d="M1317 4373 c-10 -10 -8 -173 2 -173 5 0 12 11 15 25 8 33 48 48 102
40 79 -11 118 -93 90 -190 -24 -80 -93 -132 -191 -142 -70 -7 -144 12 -188 48
-54 44 -97 155 -68 173 5 3 12 18 16 33 7 29 70 92 92 93 6 0 15 5 18 10 12
19 -23 21 -79 5 -54 -16 -57 -18 -51 -44 3 -15 -1 -46 -10 -70 -29 -82 -13
-152 49 -227 51 -60 109 -87 195 -88 57 0 75 4 122 30 106 60 152 159 125 272
-7 32 -19 68 -27 80 -12 19 -11 23 5 35 12 9 17 20 13 30 -5 13 -25 17 -104
19 -90 3 -98 5 -109 25 -6 13 -14 20 -17 16z"/>
<path d="M1620 3543 c0 -11 -70 -88 -170 -188 -93 -93 -170 -177 -170 -187 0
-9 6 -21 14 -25 8 -4 90 -5 183 -1 92 4 200 9 238 10 39 2 77 1 85 -2 21 -7
17 40 -7 76 -17 27 -18 27 -21 7 -5 -31 -19 -39 -87 -51 -57 -9 -61 -9 -82 15
-13 13 -23 31 -23 39 0 8 -9 31 -20 51 -30 55 -25 75 25 122 46 42 72 50 93
29 20 -20 14 22 -11 71 -24 48 -47 65 -47 34z m-77 -277 c30 -60 33 -85 15
-91 -7 -2 -53 -6 -101 -8 -119 -7 -124 6 -31 90 38 34 74 63 80 63 6 0 23 -24
37 -54z"/>
<path d="M1682 2627 c-65 -43 -79 -113 -39 -190 18 -33 100 -148 154 -216 2
-2 6 -1 10 2 4 4 2 12 -4 18 -6 6 -9 18 -6 27 4 8 79 69 167 134 147 109 164
119 193 113 18 -3 33 -3 33 0 0 10 -57 90 -74 104 -14 12 -16 10 -16 -17 0
-26 -10 -38 -59 -76 -33 -25 -66 -46 -73 -46 -8 0 -30 21 -50 48 -57 74 -71
88 -105 106 -43 22 -91 19 -131 -7z m145 -47 c39 -24 103 -109 96 -127 -10
-26 -153 -124 -171 -118 -23 7 -80 99 -83 133 -4 58 1 72 43 102 48 35 71 37
115 10z"/>
<path d="M4458 5824 c-3 -3 -37 -10 -74 -15 -37 -5 -72 -15 -76 -22 -4 -6 -8
-319 -8 -694 0 -535 3 -683 13 -690 6 -4 122 -6 256 -4 226 3 248 5 308 26 82
30 129 58 202 120 70 61 112 113 150 191 60 120 63 137 68 335 4 168 3 195
-17 275 -13 49 -27 93 -31 99 -5 5 -9 16 -9 25 0 28 -98 167 -147 208 -139
114 -255 151 -484 152 -80 0 -148 -3 -151 -6z"/>
</g>
</svg>
